:SAMPLES-PER-SECOND 30
:FRAME-RANGE 1-1770
:FULLY-SPECIFIED
:DEGREES
1549
root  -32.0964 39.4107 -98.6507 6.52444 33.495 -0.736206
RightUpLeg  -9.15843 1.82 6.74803
RightLeg  15.6901 9.01143 2.0359
RightFoot  -10.1554 0.0054693 -7.13234
RightToes  -1.33073e-015 0 -3.6325e-017
Spine  -2.10857 0.382897 3.31992
Spine1  7.45062 0.219665 0.132834
HEad  11.4699 -11.9933 2.06929
LeftShoulder1  1.37083 -1.81541 -20.5981
LeftArm  1.30158 2.21306 -54.4904
LeftForeArm  34.8499 -5.27938 -12.1082
LeftHand  -0.060442 4.63207 6.31979
RightShoulder  1.81166 2.23511 26.6994
RightArm  -22.5224 8.60339 55.4764
RightForeArm  59.3805 0.576215 5.42317
RightHand  -0.048002 -5.15532 -17.8112
LeftUpLeg  -24.2923 -15.5246 8.47048
LeftLeg  23.7835 5.76495 3.10363
LeftFoot  -10.8942 0.0822661 -4.35131
LeftToes  1.09107e-011 -1.16422e-010 2.98337e-011
1550
root  -31.5827 39.4288 -98.1736 6.70779 31.389 -0.235962
RightUpLeg  -7.95444 2.27669 6.00097
RightLeg  15.8632 10.2422 2.2245
RightFoot  -10.9138 -0.0442453 -7.84188
RightToes  -1.33073e-015 0 -3.6325e-017
Spine  -2.32806 0.261219 2.89583
Spine1  7.68737 0.112221 -0.108906
HEad  11.669 -11.6577 1.56853
LeftShoulder1  1.35155 -1.73238 -20.6604
LeftArm  0.112022 2.469 -54.2013
LeftForeArm  35.4861 -4.16229 -12.1848
LeftHand  -0.0654275 4.58807 6.78698
RightShoulder  1.79724 2.15947 26.8935
RightArm  -22.7586 7.85628 55.313
RightForeArm  58.9181 1.91301 5.57622
RightHand  -0.0477874 -5.15731 -17.8894
LeftUpLeg  -25.7983 -15.4901 8.62113
LeftLeg  19.2554 5.02956 2.27518
LeftFoot  -8.34665 0.131029 -3.09672
LeftToes  1.09107e-011 -1.16422e-010 2.98337e-011
1551
root  -31.0745 39.4448 -97.6694 6.83316 29.8118 0.177185
RightUpLeg  -6.62439 2.89113 5.18879
RightLeg  15.7357 11.607 2.49386
RightFoot  -11.4854 -0.086811 -7.43827
RightToes  -1.33073e-015 0 -3.6325e-017
Spine  -2.3638 0.135413 2.09058
Spine1  7.48034 -0.0951306 0.153276
HEad  12.3699 -12.1433 1.15536
LeftShoulder1  1.38665 -1.79847 -21.0243
LeftArm  -0.404903 3.1502 -53.7129
LeftForeArm  36.1487 -3.60793 -12.2132
LeftHand  -0.05317 4.73506 5.86387
RightShoulder  1.76284 1.95433 27.5406
RightArm  -21.7753 7.5107 53.6914
RightForeArm  57.4721 3.00473 6.21625
RightHand  -0.0678288 -5.02755 -18.0064
LeftUpLeg  -26.4044 -11.8386 6.88921
LeftLeg  13.9381 2.63115 2.0227
LeftFoot  -5.00973 0.232397 -3.65771
LeftToes  1.09107e-011 -1.16422e-010 2.98337e-011
1552
root  -30.5588 39.4578 -97.1313 6.8465 28.7485 0.323242
RightUpLeg  -5.21714 3.18914 4.69239
RightLeg  15.4524 12.1135 2.5691
RightFoot  -12.0638 -0.130753 -7.82293
RightToes  -1.33073e-015 0 -3.6325e-017
Spine  -2.76271 -0.138361 1.49359
Spine1  7.6587 -0.433118 0.364683
HEad  13.268 -13.2893 1.05265
LeftShoulder1  1.4024 -1.82606 -21.1962
LeftArm  -0.90615 3.85426 -53.3906
LeftForeArm  36.3963 -2.97656 -12.2493
LeftHand  -0.053009 4.71646 5.65403
RightShoulder  1.67231 1.78904 26.8167
RightArm  -22.2046 6.21564 53.9555
RightForeArm  58.0895 4.90524 6.3884
RightHand  -0.0563356 -5.10134 -17.9002
LeftUpLeg  -26.4343 -4.0249 2.94974
LeftLeg  8.28336 -2.7365 2.11842
LeftFoot  -1.53245 0.424616 -4.84053
LeftToes  1.09107e-011 -1.16422e-010 2.98337e-011
1553
root  -30.0261 39.4423 -96.5545 6.71582 27.9283 0.426575
RightUpLeg  -3.64602 3.40289 4.22655
RightLeg  15.2292 12.6787 2.70027
RightFoot  -12.7623 -0.183044 -7.80625
RightToes  -1.33073e-015 0 -3.6325e-017
Spine  -3.3626 -0.455894 1.05251
Spine1  8.21041 -0.687444 0.140904
HEad  14.1731 -14.7849 1.35746
LeftShoulder1  1.35845 -1.70831 -20.9449
LeftArm  -1.63604 4.54088 -53.4374
LeftForeArm  37.2857 -2.32088 -12.2012
LeftHand  -0.0437861 4.95421 6.11091
RightShoulder  1.62594 1.62411 26.9745
RightArm  -21.2859 5.84593 52.7694
RightForeArm  58.1177 6.41712 7.04015
RightHand  -0.038098 -5.2184 -17.2213
LeftUpLeg  -26.4036 -1.14542 1.34674
LeftLeg  3.51327 -1.93735 1.51238
LeftFoot  -0.171635 0.644209 -6.5744
LeftToes  1.09107e-011 -1.16422e-010 2.98337e-011
1554
root  -29.4856 39.4245 -95.9368 6.29559 27.1141 0.292969
RightUpLeg  -1.90923 3.97904 4.07807
RightLeg  15.1546 12.7634 2.72778
RightFoot  -13.2482 -0.220814 -7.88479
RightToes  -1.33073e-015 0 -3.6325e-017
Spine  -3.58977 -0.589678 0.276271
Spine1  8.35279 -0.913292 0.672376
HEad  15.1183 -16.3882 1.46157
LeftShoulder1  1.40842 -1.84713 -21.2018
LeftArm  -1.77262 5.52224 -53.0701
LeftForeArm  37.4015 -1.99131 -12.2567
LeftHand  -0.0452018 5.00269 6.0449
RightShoulder  1.55653 1.42278 26.8997
RightArm  -19.8378 5.56609 51.2916
RightForeArm  58.0639 7.68716 7.66765
RightHand  -0.00601041 -5.44435 -16.5287
LeftUpLeg  -26.1075 -0.945404 0.838578
LeftLeg  0.635191 0.0724749 1.15386
LeftFoot  -0.906234 0.619683 -6.72292
LeftToes  1.09107e-011 -1.16422e-010 2.98337e-011
1555
root  -28.9313 39.29 -95.2426 5.65558 26.5929 -0.267334
RightUpLeg  -0.319004 4.83429 4.46985
RightLeg  15.7461 12.4483 2.81769
RightFoot  -14.2522 -0.29474 -7.80216
RightToes  -1.33073e-015 0 -3.6325e-017
Spine  -4.18164 -0.826248 0.0281352
Spine1  8.79024 -1.20079 0.814231
HEad  15.9738 -17.9501 2.25535
LeftShoulder1  1.38686 -1.85351 -20.7193
LeftArm  -2.17969 6.46245 -53.0962
LeftForeArm  37.7976 -1.46675 -12.2494
LeftHand  -0.0484859 4.98258 5.9143
RightShoulder  1.54937 1.35969 27.201
RightArm  -18.2321 5.91989 49.5493
RightForeArm  58.7744 8.54211 8.03462
RightHand  0.0303382 -5.728 -15.6609
LeftUpLeg  -26.0168 -1.20268 0.6159
LeftLeg  0.560465 0.904454 1.28168
LeftFoot  -2.14752 0.600586 -7.30394
LeftToes  1.09107e-011 -1.16422e-010 2.98337e-011
1556
root  -28.3789 39.0976 -94.5125 5.13983 26.1669 -0.742798
RightUpLeg  1.09044 5.85646 4.81002
RightLeg  16.7303 11.8275 3.08531
RightFoot  -15.545 -0.406559 -8.20335
RightToes  -1.33073e-015 0 -3.6325e-017
Spine  -4.27443 -0.910709 -0.853279
Spine1  8.42415 -1.45946 1.63978
HEad  16.7182 -19.9263 3.21659
LeftShoulder1  1.36528 -1.80313 -20.5507
LeftArm  -2.23357 7.64509 -52.9497
LeftForeArm  38.0878 -1.22449 -12.2888
LeftHand  -0.0545665 4.98058 5.69543
RightShoulder  1.50387 1.22234 27.1974
RightArm  -15.7938 6.00402 47.4159
RightForeArm  58.6817 9.77731 8.32677
RightHand  0.0756876 -6.09267 -15.242
LeftUpLeg  -26.3936 -1.63743 0.411558
LeftLeg  3.35462 -0.375213 1.4536
LeftFoot  -2.40798 0.57858 -7.21648
LeftToes  1.09107e-011 -1.16422e-010 2.98337e-011
1557
root  -27.8256 38.9472 -93.7689 4.69339 25.3466 -1.11102
RightUpLeg  2.6387 7.53594 5.06257
RightLeg  17.3016 11.224 3.32865
RightFoot  -16.3624 -0.458732 -7.92893
RightToes  -1.33073e-015 0 -3.6325e-017
Spine  -4.43761 -0.816997 -1.63871
Spine1  8.37656 -1.29613 1.62234
HEad  16.6034 -22.2392 5.25058
LeftShoulder1  1.26142 -1.47796 -20.1691
LeftArm  -2.18747 8.73059 -52.7857
LeftForeArm  37.9443 -1.09934 -12.3435
LeftHand  -0.0589686 4.91601 5.5426
RightShoulder  1.46364 1.09162 27.2668
RightArm  -11.7171 6.54831 44.6
RightForeArm  58.2852 11.0341 8.67465
RightHand  0.0975666 -6.31868 -14.4547
LeftUpLeg  -26.5227 -2.95611 0.423228
LeftLeg  6.02343 -1.07955 2.38946
LeftFoot  1.63205 0.767069 -6.82932
LeftToes  1.09107e-011 -1.16422e-010 2.98337e-011
1558
root  -27.306 38.7873 -93.0331 4.72391 24.6476 -1.18164
RightUpLeg  3.18512 9.64892 5.22475
RightLeg  19.0994 9.97661 3.60475
RightFoot  -17.1773 -0.494853 -7.42073
RightToes  -1.33073e-015 0 -3.6325e-017
Spine  -4.38776 -0.700838 -2.70719
Spine1  7.80292 -1.14456 1.70897
HEad  16.0419 -24.9928 8.1666
LeftShoulder1  1.19407 -1.20703 -20.265
LeftArm  -1.96019 9.83373 -51.7086
LeftForeArm  36.9297 -1.43836 -12.3784
LeftHand  -0.0578549 4.92666 5.72182
RightShoulder  1.40718 0.960262 26.9488
RightArm  -13.3674 8.10166 42.3121
RightForeArm  62.8623 8.97869 9.07184
RightHand  0.0836942 -6.18331 -14.7835
LeftUpLeg  -27.0127 -3.91368 0.863467
LeftLeg  8.594 0.44908 2.39859
LeftFoot  5.7004 1.0257 -7.07233
LeftToes  1.09107e-011 -1.16422e-010 2.98337e-011
